<?xml version="1.0" standalone="no"?>
<!DOCTYPE svg PUBLIC "-//W3C//DTD SVG 20010904//EN"
 "http://www.w3.org/TR/2001/REC-SVG-20010904/DTD/svg10.dtd">
<svg version="1.0" xmlns="http://www.w3.org/2000/svg"
 width="128.000000pt" height="124.000000pt" viewBox="0 0 1280.000000 1214.000000"
 preserveAspectRatio="xMidYMid meet">
<g transform="translate(0.000000,1214.000000) scale(0.100000,-0.100000)"
fill="#efefef" stroke="none">
<path d="M2635 12045 l-80 -95 -46 -173 c-25 -94 -49 -171 -52 -169 -56 24
-104 43 -161 62 l-68 22 -73 -73 -72 -74 -53 -170 c-29 -93 -56 -177 -61 -186
-6 -13 -33 -17 -126 -23 l-118 -6 -144 -87 c-79 -48 -156 -97 -170 -109 -14
-12 -147 -174 -295 -360 l-269 -339 -155 -119 -154 -119 -115 -23 c-63 -13
-122 -29 -132 -36 -10 -7 -69 -59 -133 -116 l-115 -103 -22 -201 c-25 -228
-29 -208 62 -275 35 -26 46 -40 42 -53 -5 -15 42 -127 60 -148 2 -2 45 -10 97
-17 67 -9 157 -35 324 -94 l230 -81 150 0 c188 -1 584 -55 652 -89 42 -21 49
-31 35 -45 -5 -4 -44 -123 -88 -264 l-81 -257 26 -6 c14 -4 37 -10 53 -13 21
-5 27 -12 27 -32 0 -14 -4 -33 -9 -42 -7 -12 -3 -25 14 -46 l22 -28 69 46 69
46 3 -175 2 -175 24 6 c12 3 60 13 105 23 l83 18 8 -21 c5 -12 16 -43 26 -69
15 -41 25 -52 61 -70 35 -17 43 -26 43 -48 0 -15 -4 -31 -10 -34 -5 -3 -10
-37 -10 -74 0 -54 -23 -182 -65 -367 -3 -14 7 -37 29 -66 l34 -44 -11 -143
-10 -143 27 -26 c23 -24 29 -25 47 -14 12 8 22 12 23 10 33 -50 76 -92 112
-107 l44 -20 0 -154 0 -153 28 -27 c15 -15 42 -30 60 -33 30 -6 32 -9 32 -48
0 -22 -5 -98 -12 -167 -11 -122 -11 -127 12 -182 21 -51 27 -57 53 -57 16 0
42 9 59 21 16 12 32 18 35 15 3 -3 36 -61 72 -128 65 -121 67 -123 112 -135
l45 -13 23 -120 c22 -116 25 -121 60 -150 l37 -29 32 32 31 31 26 -24 c14 -13
25 -28 25 -33 0 -7 89 -127 94 -127 1 0 17 4 36 10 32 9 40 6 102 -35 51 -34
68 -51 68 -68 0 -14 22 -44 60 -82 64 -63 62 -63 91 -12 12 21 21 21 48 0 14
-12 36 -68 67 -172 l47 -154 -46 -234 -47 -234 -154 -211 c-147 -202 -154
-214 -165 -277 -6 -36 -33 -190 -59 -341 l-49 -275 -208 -475 -208 -475 -260
-367 -260 -367 -47 -165 -47 -165 26 -25 c14 -13 59 -40 98 -60 l73 -36 228 0
228 0 45 48 c25 26 92 112 149 192 56 80 108 150 116 156 8 7 72 15 142 19
106 6 133 10 167 30 l40 23 47 320 47 319 160 298 c89 164 163 301 166 303 3
3 16 -5 29 -17 19 -18 26 -40 35 -109 6 -48 22 -133 34 -190 l22 -103 -23
-392 c-22 -390 -22 -393 -58 -512 -33 -112 -45 -135 -174 -346 l-140 -226 -59
-223 -60 -223 24 -46 c20 -40 38 -56 122 -108 91 -56 106 -62 211 -81 l113
-22 74 50 c59 40 91 73 164 167 78 103 103 145 192 335 56 120 105 218 109
218 4 0 15 -9 25 -20 24 -27 36 -25 67 7 24 27 26 37 37 208 11 170 13 181 36
205 23 24 25 33 25 126 0 54 -7 155 -15 223 -13 108 -18 128 -40 151 -39 41
-34 102 35 401 33 144 63 265 66 270 3 5 9 7 14 4 5 -3 11 3 14 12 3 10 39
127 81 261 l77 243 -26 151 -25 151 25 49 c19 37 28 47 38 39 9 -8 15 13 24
94 10 96 15 112 57 184 l45 79 24 237 c23 221 26 239 49 264 18 19 33 62 57
161 18 74 34 136 35 137 0 2 26 -7 56 -18 30 -12 128 -34 219 -50 150 -26 185
-29 395 -29 229 0 231 0 341 -31 l112 -32 238 47 c171 34 287 50 409 59 168
12 171 12 280 -13 l110 -25 220 22 c121 12 235 23 254 25 l35 3 16 -65 c11
-43 46 -118 107 -223 l90 -158 359 -331 c197 -182 455 -419 572 -526 116 -107
212 -201 212 -209 0 -39 -95 -346 -154 -493 -14 -36 -72 -190 -130 -342 l-105
-277 -261 -342 -260 -341 0 -129 c0 -107 3 -129 15 -129 8 0 40 -11 70 -25 50
-22 78 -25 275 -36 216 -11 219 -11 245 9 15 12 76 87 136 167 104 138 111
145 151 151 32 6 60 24 127 81 l85 73 14 68 c7 37 17 90 23 118 7 39 29 77
100 175 50 68 96 124 102 124 9 0 13 -75 15 -275 3 -261 1 -281 -22 -390 -14
-63 -34 -169 -46 -235 -12 -71 -28 -130 -39 -145 -10 -14 -52 -73 -94 -131
l-77 -106 0 -84 c1 -84 1 -84 49 -152 32 -46 73 -86 127 -126 l80 -59 107 -11
106 -12 57 32 c45 26 76 57 152 152 80 101 100 134 132 216 20 53 42 126 49
162 7 35 17 85 23 112 l10 47 43 0 c39 0 47 4 72 36 l27 37 12 316 c17 454 37
609 150 1147 l94 452 0 207 0 208 -154 256 c-144 239 -159 268 -222 440 l-68
184 33 131 c145 572 155 604 229 752 59 118 83 183 150 405 l79 264 59 398 59
397 105 -105 105 -105 81 0 81 0 48 -60 c43 -54 52 -60 85 -60 28 0 43 8 70
35 l34 35 27 -26 c21 -21 35 -25 56 -21 60 12 82 27 104 69 12 24 23 44 24 46
2 2 40 -17 84 -43 l81 -47 47 35 48 34 56 -17 c116 -35 103 -39 150 46 23 41
47 78 53 80 7 3 51 1 99 -4 l87 -8 22 57 c21 55 25 58 67 69 34 9 63 29 121
83 42 40 106 92 143 117 l67 45 0 165 0 166 -257 -24 -258 -23 -300 46 c-180
28 -372 64 -480 91 l-181 45 -191 157 c-173 141 -209 166 -360 246 -118 62
-193 110 -253 160 -47 39 -93 77 -102 84 -9 7 -128 49 -264 93 -240 76 -443
124 -1086 255 -56 12 -88 23 -88 31 0 9 -17 5 -56 -12 -53 -24 -67 -25 -233
-25 -159 0 -183 -2 -251 -24 -63 -21 -122 -28 -365 -45 -159 -12 -307 -26
-329 -32 -37 -10 -42 -8 -130 45 l-91 55 -214 35 -213 35 -606 -35 -607 -35
-113 61 c-97 53 -120 61 -154 58 -38 -3 -45 1 -117 65 -61 56 -102 82 -209
133 -119 58 -139 64 -195 64 -34 0 -114 10 -177 21 l-115 22 -140 115 -140
114 -59 126 c-32 70 -116 250 -187 400 l-129 274 0 79 c0 79 -1 83 -70 226
-68 142 -72 154 -165 530 l-95 385 -105 153 -105 153 -232 176 -233 175 -61
118 -61 118 -21 183 -21 184 -41 51 c-81 103 -70 97 -152 97 l-73 0 -80 -95z"/>
</g>
</svg>
